<svg xmlns="http://www.w3.org/2000/svg" width="21.185" height="21.185" viewBox="0 0 21.185 21.185">
  <path id="Device1" d="M19.477,19.477H7.708V7.708H19.477m4.708,4.708V10.062H21.831V7.708a2.353,2.353,0,0,0-2.354-2.354H17.123V3H14.769V5.354H12.415V3H10.062V5.354H7.708A2.346,2.346,0,0,0,5.354,7.708v2.354H3v2.354H5.354v2.354H3v2.354H5.354v2.354a2.361,2.361,0,0,0,2.354,2.354h2.354v2.354h2.354V21.831h2.354v2.354h2.354V21.831h2.354a2.361,2.361,0,0,0,2.354-2.354V17.123h2.354V14.769H21.831V12.415m-4.708-2.354H10.062v7.062h7.062Z" transform="translate(-3 -3)" fill="#e74a3b"/>
</svg>
