<svg xmlns="http://www.w3.org/2000/svg" width="31.038" height="25.374" viewBox="0 0 31.038 25.374">
  <g id="All_Device3" data-name="All Device3" transform="translate(-1594.377 -4551.627)">
    <g id="All_Device2" data-name="All Device2" transform="translate(1595.379 4552.63)">
      <path id="Union_7" data-name="Union 7" d="M-1575.156-4589.259a.5.5,0,0,1-.088,0h-.093a.052.052,0,0,1-.023,0c-.028,0-.056-.006-.083-.006l0,0a.4.4,0,0,1-.083-.009h-.019c-.023,0-.051-.009-.074-.014h-.014c-.06-.009-.121-.023-.176-.037a2.8,2.8,0,0,1-2.139-2.718v-.218h-14.637a2.8,2.8,0,0,1-2.792-2.8v-9.266a2.8,2.8,0,0,1,2.792-2.792h14.637v-2.7a2.807,2.807,0,0,1,2.8-2.8h6.015a2.811,2.811,0,0,1,2.8,2.8v17.776a2.806,2.806,0,0,1-2.8,2.8Zm-13.546,0a.7.7,0,0,1-.7-.7.7.7,0,0,1,.7-.7h7.849a.7.7,0,0,1,.7.7.7.7,0,0,1-.7.7Z" transform="translate(1595.379 4612.63)" fill="#858796" stroke="#858796" stroke-miterlimit="10" stroke-width="2"/>
    </g>
    <g id="All_Device2-2" data-name="All Device2" transform="translate(1595.379 4552.63)">
      <path id="Path_3999" data-name="Path 3999" d="M362.438,295.828a.9.9,0,1,0,.9-.9A.9.9,0,0,0,362.438,295.828Z" transform="translate(-340.107 -276.664)" fill="#fff"/>
      <g id="Group_4696" data-name="Group 4696" transform="translate(5.978 21.968)">
        <path id="Path_4000" data-name="Path 4000" d="M330.044,305.6H322.2a.7.7,0,1,1,0-1.4h7.849a.7.7,0,1,1,0,1.4Z" transform="translate(-321.496 -304.2)" fill="#fff"/>
      </g>
      <path id="Path_4001" data-name="Path 4001" d="M358.969,249.2H352.95a2.8,2.8,0,0,0-2.8,2.8V253.1h1.4V252a1.4,1.4,0,0,1,1.4-1.4h6.019a1.4,1.4,0,0,1,1.4,1.4v17.779a1.4,1.4,0,0,1-1.4,1.4l-8.442-.012a2.8,2.8,0,0,0,2.423,1.41h6.019a2.8,2.8,0,0,0,2.8-2.8V252A2.8,2.8,0,0,0,358.969,249.2Z" transform="translate(-332.729 -249.2)" fill="#fff"/>
      <g id="Group_4697" data-name="Group 4697" transform="translate(20.717 3.021)">
        <path id="Path_4002" data-name="Path 4002" d="M362.724,258.161H359.1a.7.7,0,0,1,0-1.4h3.628a.7.7,0,1,1,0,1.4Z" transform="translate(-358.397 -256.763)" fill="#fff"/>
      </g>
      <path id="Path_4003" data-name="Path 4003" d="M324.941,262.972H309.321a2.8,2.8,0,0,0-2.791,2.8v9.265a2.8,2.8,0,0,0,2.791,2.8h15.619a2.8,2.8,0,0,0,2.8-2.8v-9.265A2.8,2.8,0,0,0,324.941,262.972Zm1.4,12.06a1.4,1.4,0,0,1-1.4,1.4H309.321a1.4,1.4,0,0,1-1.4-1.4v-9.265a1.4,1.4,0,0,1,1.4-1.4h15.619a1.4,1.4,0,0,1,1.4,1.4Z" transform="translate(-306.53 -257.471)" fill="#fff"/>
    </g>
  </g>
</svg>
