<svg xmlns="http://www.w3.org/2000/svg" width="12.581" height="17.086" viewBox="0 0 12.581 17.086">
  <g id="location" transform="translate(-12.883)">
    <path id="Path_4005" data-name="Path 4005" d="M19.173,0a6.3,6.3,0,0,0-6.29,6.291,6.136,6.136,0,0,0,.55,2.568,39.662,39.662,0,0,0,5.475,8.106.35.35,0,0,0,.531,0,39.682,39.682,0,0,0,5.475-8.106,6.133,6.133,0,0,0,.55-2.568A6.3,6.3,0,0,0,19.173,0Zm0,9.558A3.268,3.268,0,1,1,22.441,6.29,3.271,3.271,0,0,1,19.173,9.558Z" transform="translate(0)"/>
  </g>
</svg>
