<svg xmlns="http://www.w3.org/2000/svg" width="22.57" height="20.082" viewBox="0 0 22.57 20.082">
  <g id="Periphery4" transform="translate(-57.493 -71.257)">
    <g id="Group_5007" data-name="Group 5007" transform="translate(57.493 71.257)">
      <g id="Group_5006" data-name="Group 5006" transform="translate(0 0)">
        <path id="Exclusion_1" data-name="Exclusion 1" d="M17.191,20.082H5.379a.949.949,0,0,1,0-1.9h2.9V16.77H2.531A2.531,2.531,0,0,1,0,14.238V2.531A2.531,2.531,0,0,1,2.531,0H20.039A2.531,2.531,0,0,1,22.57,2.531V14.238a2.531,2.531,0,0,1-2.531,2.531H14.288v1.414h2.9a.949.949,0,0,1,0,1.9ZM2.531,2.215a.317.317,0,0,0-.316.316V14.238a.317.317,0,0,0,.316.316H20.039a.317.317,0,0,0,.316-.316V2.531a.317.317,0,0,0-.316-.316Z" fill="#858796"/>
      </g>
    </g>
  </g>
</svg>
