<svg id="Software3" xmlns="http://www.w3.org/2000/svg" width="20.878" height="19.573" viewBox="0 0 20.878 19.573">
  <path id="Path_4065" data-name="Path 4065" d="M103.845,421.223h-2.006L101.431,420H94.026l-.408,1.223H91.612a.612.612,0,0,0,0,1.223h12.233a.612.612,0,0,0,0-1.223Zm0,0" transform="translate(-87.29 -402.873)" fill="#36b9cd"/>
  <path id="Path_4066" data-name="Path 4066" d="M391.612,90a.612.612,0,1,0,.612.612A.612.612,0,0,0,391.612,90Zm0,0" transform="translate(-375.056 -86.33)" fill="#36b9cd"/>
  <path id="Path_4067" data-name="Path 4067" d="M19,0H1.835A1.837,1.837,0,0,0,0,1.835v10.4H3.711V10.4a.611.611,0,0,1,.612-.612h.945a5.444,5.444,0,0,1,.217-.524l-.669-.669a.611.611,0,0,1,0-.865L6.546,6a.611.611,0,0,1,.865,0l.669.669A5.472,5.472,0,0,1,8.6,6.45V5.5a.611.611,0,0,1,.612-.612h2.447a.611.611,0,0,1,.612.612V6.45a5.487,5.487,0,0,1,.524.218L13.467,6a.612.612,0,0,1,.865,0l1.73,1.73a.611.611,0,0,1,0,.865l-.669.669a5.46,5.46,0,0,1,.217.524h.945a.611.611,0,0,1,.612.612v1.835h3.711V1.835A1.872,1.872,0,0,0,19,0ZM16.556,6.117a1.835,1.835,0,1,1,1.835-1.835A1.837,1.837,0,0,1,16.556,6.117Zm0,0" transform="translate(0 0)" fill="#36b9cd"/>
  <path id="Path_4068" data-name="Path 4068" d="M211,241.835a1.824,1.824,0,0,0,.119.612h3.433a1.829,1.829,0,1,0-3.551-.612Zm0,0" transform="translate(-202.396 -230.213)" fill="#36b9cd"/>
  <path id="Path_4069" data-name="Path 4069" d="M122.377,154.434a.612.612,0,0,1-.593.459H121v1.223h2.527a3.06,3.06,0,1,1,5.956,0h2.527v-1.223h-.785a.612.612,0,0,1-.593-.459,4.2,4.2,0,0,0-.453-1.09.612.612,0,0,1,.094-.743l.556-.557-.865-.865-.557.557a.609.609,0,0,1-.744.094,4.2,4.2,0,0,0-1.09-.453.612.612,0,0,1-.459-.593V150h-1.223v.785a.612.612,0,0,1-.459.593,4.2,4.2,0,0,0-1.09.453.609.609,0,0,1-.744-.094l-.557-.557-.865.865.556.557a.612.612,0,0,1,.094.743A4.2,4.2,0,0,0,122.377,154.434Zm0,0" transform="translate(-116.066 -143.883)" fill="#36b9cd"/>
  <path id="Path_4070" data-name="Path 4070" d="M0,330.612a1.837,1.837,0,0,0,1.835,1.835H19a1.872,1.872,0,0,0,1.876-1.835V330H0Zm0,0" transform="translate(0 -316.543)" fill="#36b9cd"/>
</svg>
