<svg xmlns="http://www.w3.org/2000/svg" width="94" height="81.875" viewBox="0 0 94 81.875">
  <g id="Group_4837" data-name="Group 4837" transform="translate(-13253.559 -5891.989)">
    <path id="Path_4046" data-name="Path 4046" d="M92.931,61.055a3.672,3.672,0,0,0-4.771-2.049c-1.883.752,1.543,8.263,3.268,7.2a3.671,3.671,0,0,0,1.194-5.053L59.955,7.223a15.216,15.216,0,0,0-25.9,0L2.3,58.64A15.23,15.23,0,0,0,15.251,81.875H78.764A14.987,14.987,0,0,0,91.351,75.21,15.184,15.184,0,0,0,92.931,61.055Z" transform="translate(13253.559 5891.989)" fill="#f10"/>
    <path id="Path_4047" data-name="Path 4047" d="M4.2,8.4A4.2,4.2,0,1,0,4.2,0h0a4.2,4.2,0,0,0,0,8.4Z" transform="translate(13296.369 5951.171)" fill="#fff"/>
    <path id="Path_4048" data-name="Path 4048" d="M8.4,35.053V4.2A4.2,4.2,0,1,0,0,4.2V35.053a4.2,4.2,0,0,0,8.4,0Z" transform="translate(13296.368 5910.092)" fill="#fff"/>
  </g>
</svg>
